<?xml version="1.0" encoding="UTF-8" standalone="no"?> <svg width="64" height="64" viewBox="0 0 64 64" fill="none" xmlns="http://www.w3.org/2000/svg">
<path d="M11 53V29H41C42.0609 29 43.0783 28.5786 43.8284 27.8284C44.5786 27.0783 45 26.0609 45 25V7C45 5.93913 45.4214 4.92172 46.1716 4.17157C46.9217 3.42143 47.9391 3 49 3C50.0609 3 51.0783 3.42143 51.8284 4.17157C52.5786 4.92172 53 5.93913 53 7V49C53 50.0609 53.4214 51.0783 54.1716 51.8284C54.9217 52.5786 55.9391 53 57 53H11Z" fill="#FFC477"/>
<path d="M53 49V25C53 32.4261 50.05 39.548 44.799 44.799C39.548 50.05 32.4261 53 25 53H57C55.9391 53 54.9217 52.5786 54.1716 51.8284C53.4214 51.0783 53 50.0609 53 49Z" fill="#FFB655"/>
<path d="M49 3C47.9391 3 46.9217 3.42143 46.1716 4.17157C45.4214 4.92172 45 5.93913 45 7V25C45 26.0609 44.5786 27.0783 43.8284 27.8284C43.0783 28.5786 42.0609 29 41 29H11V7C11 5.93913 11.4214 4.92172 12.1716 4.17157C12.9217 3.42143 13.9391 3 15 3H49Z" fill="#FFDAAA"/>
<path d="M61 41V49C61 50.0609 60.5786 51.0783 59.8284 51.8284C59.0783 52.5786 58.0609 53 57 53C55.9391 53 54.9217 52.5786 54.1716 51.8284C53.4214 51.0783 53 50.0609 53 49V41L57 43L61 41Z" fill="#FF9811"/>
<path d="M23 29H41C42.0609 29 43.0783 28.5786 43.8284 27.8284C44.5786 27.0783 45 26.0609 45 25V7C45 12.8348 42.6822 18.4305 38.5564 22.5563C34.4306 26.6821 28.8348 29 23 29V29Z" fill="#FFC477"/>
<path d="M37 25V22L33.995 24L30.989 22L27.989 24L24.989 22L21.989 24L18.989 22L15.989 24L12.989 22L9.989 24L7 22V25C7 26.0609 7.42143 27.0783 8.17157 27.8284C8.92172 28.5786 9.93913 29 11 29H41C39.9391 29 38.9217 28.5786 38.1716 27.8284C37.4214 27.0783 37 26.0609 37 25Z" fill="#FFA733"/>
<path d="M47 33V57H43V37H7V33H47Z" fill="#4E901E"/>
<path d="M43 37H3V61H43V37Z" fill="#91DC5A"/>
<path d="M43 49H3V61H43V49Z" fill="#7ED63E"/>
<path d="M39 43.87V54.13C38.3079 54.3065 37.6762 54.6662 37.1712 55.1712C36.6662 55.6762 36.3065 56.3079 36.13 57H9.87C9.69349 56.3079 9.33382 55.6762 8.8288 55.1712C8.32378 54.6662 7.69205 54.3065 7 54.13V43.87C7.69205 43.6935 8.32378 43.3338 8.8288 42.8288C9.33382 42.3238 9.69349 41.6921 9.87 41H36.13C36.3065 41.6921 36.6662 42.3238 37.1712 42.8288C37.6762 43.3338 38.3079 43.6935 39 43.87V43.87Z" fill="#5EAC24"/>
<path d="M7 49V54.13C7.69205 54.3065 8.32378 54.6662 8.8288 55.1712C9.33382 55.6762 9.69349 56.3079 9.87 57H36.13C36.3065 56.3079 36.6662 55.6762 37.1712 55.1712C37.6762 54.6662 38.3079 54.3065 39 54.13V49H7Z" fill="#4E901E"/>
<path d="M23 53C25.2091 53 27 51.2091 27 49C27 46.7909 25.2091 45 23 45C20.7909 45 19 46.7909 19 49C19 51.2091 20.7909 53 23 53Z" fill="#F1F2F2"/>
<path d="M23 44C22.0111 44 21.0444 44.2932 20.2222 44.8427C19.3999 45.3921 18.759 46.173 18.3806 47.0866C18.0022 48.0002 17.9031 49.0055 18.0961 49.9755C18.289 50.9454 18.7652 51.8363 19.4645 52.5355C20.1637 53.2348 21.0546 53.711 22.0246 53.9039C22.9945 54.0969 23.9998 53.9978 24.9134 53.6194C25.8271 53.241 26.6079 52.6001 27.1574 51.7779C27.7068 50.9556 28 49.9889 28 49C27.9984 47.6744 27.4711 46.4036 26.5338 45.4662C25.5964 44.5289 24.3256 44.0016 23 44V44ZM23 52C22.4067 52 21.8266 51.8241 21.3333 51.4944C20.8399 51.1648 20.4554 50.6962 20.2284 50.148C20.0013 49.5999 19.9419 48.9967 20.0576 48.4147C20.1734 47.8328 20.4591 47.2982 20.8787 46.8787C21.2982 46.4591 21.8328 46.1734 22.4147 46.0576C22.9967 45.9419 23.5999 46.0013 24.1481 46.2284C24.6962 46.4554 25.1648 46.8399 25.4944 47.3333C25.8241 47.8266 26 48.4067 26 49C26 49.7956 25.6839 50.5587 25.1213 51.1213C24.5587 51.6839 23.7957 52 23 52Z" fill="#231F20"/>
<path d="M39.248 42.9C38.7302 42.7677 38.2575 42.4984 37.8795 42.1205C37.5016 41.7425 37.2323 41.2698 37.1 40.752C37.0449 40.5367 36.9196 40.3459 36.7439 40.2097C36.5683 40.0735 36.3523 39.9997 36.13 40H9.87C9.64791 39.9999 9.43212 40.0738 9.25667 40.21C9.08121 40.3462 8.95608 40.5368 8.901 40.752C8.76859 41.27 8.49918 41.7427 8.12106 42.1207C7.74293 42.4986 7.27003 42.7678 6.752 42.9C6.53668 42.9551 6.34586 43.0804 6.20968 43.2561C6.0735 43.4317 5.99973 43.6477 6 43.87V54.13C5.99995 54.3521 6.07383 54.5679 6.20999 54.7433C6.34615 54.9188 6.53685 55.0439 6.752 55.099C7.26997 55.2314 7.74274 55.5008 8.12069 55.8789C8.49864 56.2571 8.76783 56.73 8.9 57.248C8.95512 57.4633 9.0804 57.6541 9.25606 57.7903C9.43172 57.9265 9.64774 58.0003 9.87 58H36.13C36.3521 58.0001 36.5679 57.9262 36.7433 57.79C36.9188 57.6538 37.0439 57.4632 37.099 57.248C37.2314 56.73 37.5008 56.2573 37.8789 55.8793C38.2571 55.5014 38.73 55.2322 39.248 55.1C39.4633 55.0449 39.6541 54.9196 39.7903 54.7439C39.9265 54.5683 40.0003 54.3523 40 54.13V43.87C40.0003 43.6477 39.9265 43.4317 39.7903 43.2561C39.6541 43.0804 39.4633 42.9551 39.248 42.9ZM38 53.418C36.8438 53.9212 35.9212 54.8438 35.418 56H10.582C10.0788 54.8438 9.1562 53.9212 8 53.418V44.582C9.1562 44.0788 10.0788 43.1562 10.582 42H35.418C35.9212 43.1562 36.8438 44.0788 38 44.582V53.418Z" fill="#231F20"/>
<path d="M18 16C16.779 16 16 15.408 16 15C16 14.7348 15.8946 14.4804 15.7071 14.2929C15.5196 14.1054 15.2652 14 15 14C14.7348 14 14.4804 14.1054 14.2929 14.2929C14.1054 14.4804 14 14.7348 14 15C14 16.421 15.259 17.571 17 17.9V19C17 19.2652 17.1054 19.5196 17.2929 19.7071C17.4804 19.8946 17.7348 20 18 20C18.2652 20 18.5196 19.8946 18.7071 19.7071C18.8946 19.5196 19 19.2652 19 19V17.9C20.741 17.573 22 16.423 22 15C22 13.318 20.243 12 18 12C16.779 12 16 11.408 16 11C16 10.592 16.779 10 18 10C19.221 10 20 10.592 20 11C20 11.2652 20.1054 11.5196 20.2929 11.7071C20.4804 11.8946 20.7348 12 21 12C21.2652 12 21.5196 11.8946 21.7071 11.7071C21.8946 11.5196 22 11.2652 22 11C22 9.579 20.741 8.429 19 8.1V7C19 6.73478 18.8946 6.48043 18.7071 6.29289C18.5196 6.10536 18.2652 6 18 6C17.7348 6 17.4804 6.10536 17.2929 6.29289C17.1054 6.48043 17 6.73478 17 7V8.1C15.259 8.427 14 9.577 14 11C14 12.682 15.757 14 18 14C19.221 14 20 14.592 20 15C20 15.408 19.221 16 18 16Z" fill="#231F20"/>
<path d="M61.53 40.15C61.3836 40.0604 61.2167 40.0096 61.0452 40.0026C60.8737 39.9956 60.7032 40.0326 60.55 40.11L57 41.88L54 40.38V7C54 5.67392 53.4732 4.40215 52.5355 3.46447C51.5979 2.52678 50.3261 2 49 2H15C13.6739 2 12.4021 2.52678 11.4645 3.46447C10.5268 4.40215 10 5.67392 10 7V22.8L7.56 21.17C7.40949 21.0683 7.23411 21.0095 7.05269 20.9999C6.87127 20.9903 6.69067 21.0303 6.53029 21.1157C6.36991 21.201 6.2358 21.3284 6.14237 21.4842C6.04895 21.64 5.99973 21.8183 6 22V25C6.00295 26.1518 6.40213 27.2675 7.13051 28.1598C7.85889 29.0521 8.8721 29.6665 10 29.9V32H7C6.73478 32 6.48043 32.1054 6.29289 32.2929C6.10536 32.4804 6 32.7348 6 33V36H3C2.73478 36 2.48043 36.1054 2.29289 36.2929C2.10536 36.4804 2 36.7348 2 37V61C2 61.2652 2.10536 61.5196 2.29289 61.7071C2.48043 61.8946 2.73478 62 3 62H43C43.2652 62 43.5196 61.8946 43.7071 61.7071C43.8946 61.5196 44 61.2652 44 61V58H47C47.2652 58 47.5196 57.8946 47.7071 57.7071C47.8946 57.5196 48 57.2652 48 57V54H57C58.3261 54 59.5979 53.4732 60.5355 52.5355C61.4732 51.5979 62 50.3261 62 49V41C62.0003 40.8301 61.9574 40.6628 61.8751 40.5141C61.7929 40.3654 61.6741 40.2401 61.53 40.15V40.15ZM12 7C12.0024 6.20508 12.3192 5.4434 12.8813 4.8813C13.4434 4.31921 14.2051 4.00237 15 4H45.03C44.3652 4.85902 44.003 5.91376 44 7V25C44 25.7956 43.6839 26.5587 43.1213 27.1213C42.5587 27.6839 41.7956 28 41 28C40.2044 28 39.4413 27.6839 38.8787 27.1213C38.3161 26.5587 38 25.7956 38 25V22C38.0013 21.8187 37.9525 21.6406 37.859 21.4853C37.7654 21.3301 37.6308 21.2036 37.47 21.12C37.3124 21.0319 37.1332 20.9898 36.9528 20.9987C36.7725 21.0075 36.5982 21.0669 36.45 21.17L33.99 22.8L31.54 21.17C31.3757 21.0604 31.1825 21.0019 30.985 21.0019C30.7875 21.0019 30.5943 21.0604 30.43 21.17L27.99 22.8L25.54 21.17C25.3767 21.0576 25.1832 20.9975 24.985 20.9975C24.7868 20.9975 24.5933 21.0576 24.43 21.17L21.99 22.8L19.55 21.17C19.3867 21.0576 19.1932 20.9975 18.995 20.9975C18.7968 20.9975 18.6033 21.0576 18.44 21.17L15.99 22.8L13.55 21.17C13.3867 21.0576 13.1932 20.9975 12.995 20.9975C12.7968 20.9975 12.6033 21.0576 12.44 21.17L12 21.46V7ZM8 25V23.87L9.44 24.83C9.60327 24.9424 9.7968 25.0025 9.995 25.0025C10.1932 25.0025 10.3867 24.9424 10.55 24.83L12.99 23.2L15.44 24.83C15.6033 24.9424 15.7968 25.0025 15.995 25.0025C16.1932 25.0025 16.3867 24.9424 16.55 24.83L18.99 23.2L21.43 24.83C21.5933 24.9424 21.7868 25.0025 21.985 25.0025C22.1832 25.0025 22.3767 24.9424 22.54 24.83L24.99 23.2L27.43 24.83C27.5933 24.9424 27.7868 25.0025 27.985 25.0025C28.1832 25.0025 28.3767 24.9424 28.54 24.83L30.99 23.2L33.44 24.83C33.6033 24.9424 33.7968 25.0025 33.995 25.0025C34.1932 25.0025 34.3867 24.9424 34.55 24.83L36 23.87V25C35.9989 26.082 36.3499 27.135 37 28H11C10.2051 27.9976 9.4434 27.6808 8.8813 27.1187C8.31921 26.5566 8.00237 25.7949 8 25V25ZM42 60H4V38H42V60ZM46 56H44V37C44 36.7348 43.8946 36.4804 43.7071 36.2929C43.5196 36.1054 43.2652 36 43 36H8V34H46V56ZM48 52V33C48 32.7348 47.8946 32.4804 47.7071 32.2929C47.5196 32.1054 47.2652 32 47 32H12V30H41C42.1518 29.9971 43.2675 29.5979 44.1598 28.8695C45.0521 28.1411 45.6665 27.1279 45.9 26H49C49.2652 26 49.5196 25.8946 49.7071 25.7071C49.8946 25.5196 50 25.2652 50 25C50 24.7348 49.8946 24.4804 49.7071 24.2929C49.5196 24.1054 49.2652 24 49 24H46V22H49C49.2652 22 49.5196 21.8946 49.7071 21.7071C49.8946 21.5196 50 21.2652 50 21C50 20.7348 49.8946 20.4804 49.7071 20.2929C49.5196 20.1054 49.2652 20 49 20H46V18H49C49.2652 18 49.5196 17.8946 49.7071 17.7071C49.8946 17.5196 50 17.2652 50 17C50 16.7348 49.8946 16.4804 49.7071 16.2929C49.5196 16.1054 49.2652 16 49 16H46V14H49C49.2652 14 49.5196 13.8946 49.7071 13.7071C49.8946 13.5196 50 13.2652 50 13C50 12.7348 49.8946 12.4804 49.7071 12.2929C49.5196 12.1054 49.2652 12 49 12H46V10H49C49.2652 10 49.5196 9.89464 49.7071 9.70711C49.8946 9.51957 50 9.26522 50 9C50 8.73478 49.8946 8.48043 49.7071 8.29289C49.5196 8.10536 49.2652 8 49 8H46V7C46 6.20435 46.3161 5.44129 46.8787 4.87868C47.4413 4.31607 48.2044 4 49 4C49.7956 4 50.5587 4.31607 51.1213 4.87868C51.6839 5.44129 52 6.20435 52 7V49C52.003 50.0862 52.3652 51.141 53.03 52H48ZM60 49C60 49.7956 59.6839 50.5587 59.1213 51.1213C58.5587 51.6839 57.7956 52 57 52C56.2044 52 55.4413 51.6839 54.8787 51.1213C54.3161 50.5587 54 49.7956 54 49V42.62L56.55 43.89C56.6885 43.9639 56.843 44.0025 57 44.0025C57.157 44.0025 57.3115 43.9639 57.45 43.89L60 42.62V49Z" fill="#231F20"/>
<path d="M25 19H26C26.2652 19 26.5196 18.8946 26.7071 18.7071C26.8946 18.5196 27 18.2652 27 18C27 17.7348 26.8946 17.4804 26.7071 17.2929C26.5196 17.1054 26.2652 17 26 17H25C24.7348 17 24.4804 17.1054 24.2929 17.2929C24.1054 17.4804 24 17.7348 24 18C24 18.2652 24.1054 18.5196 24.2929 18.7071C24.4804 18.8946 24.7348 19 25 19Z" fill="#231F20"/>
<path d="M30 19H41C41.2652 19 41.5196 18.8946 41.7071 18.7071C41.8946 18.5196 42 18.2652 42 18C42 17.7348 41.8946 17.4804 41.7071 17.2929C41.5196 17.1054 41.2652 17 41 17H30C29.7348 17 29.4804 17.1054 29.2929 17.2929C29.1054 17.4804 29 17.7348 29 18C29 18.2652 29.1054 18.5196 29.2929 18.7071C29.4804 18.8946 29.7348 19 30 19Z" fill="#231F20"/>
<path d="M25 15H26C26.2652 15 26.5196 14.8946 26.7071 14.7071C26.8946 14.5196 27 14.2652 27 14C27 13.7348 26.8946 13.4804 26.7071 13.2929C26.5196 13.1054 26.2652 13 26 13H25C24.7348 13 24.4804 13.1054 24.2929 13.2929C24.1054 13.4804 24 13.7348 24 14C24 14.2652 24.1054 14.5196 24.2929 14.7071C24.4804 14.8946 24.7348 15 25 15Z" fill="#231F20"/>
<path d="M30 15H41C41.2652 15 41.5196 14.8946 41.7071 14.7071C41.8946 14.5196 42 14.2652 42 14C42 13.7348 41.8946 13.4804 41.7071 13.2929C41.5196 13.1054 41.2652 13 41 13H30C29.7348 13 29.4804 13.1054 29.2929 13.2929C29.1054 13.4804 29 13.7348 29 14C29 14.2652 29.1054 14.5196 29.2929 14.7071C29.4804 14.8946 29.7348 15 30 15Z" fill="#231F20"/>
<path d="M25 11H26C26.2652 11 26.5196 10.8946 26.7071 10.7071C26.8946 10.5196 27 10.2652 27 10C27 9.73478 26.8946 9.48043 26.7071 9.29289C26.5196 9.10536 26.2652 9 26 9H25C24.7348 9 24.4804 9.10536 24.2929 9.29289C24.1054 9.48043 24 9.73478 24 10C24 10.2652 24.1054 10.5196 24.2929 10.7071C24.4804 10.8946 24.7348 11 25 11Z" fill="#231F20"/>
<path d="M30 11H41C41.2652 11 41.5196 10.8946 41.7071 10.7071C41.8946 10.5196 42 10.2652 42 10C42 9.73478 41.8946 9.48043 41.7071 9.29289C41.5196 9.10536 41.2652 9 41 9H30C29.7348 9 29.4804 9.10536 29.2929 9.29289C29.1054 9.48043 29 9.73478 29 10C29 10.2652 29.1054 10.5196 29.2929 10.7071C29.4804 10.8946 29.7348 11 30 11Z" fill="#231F20"/>
<path d="M33 48H31C30.7348 48 30.4804 48.1054 30.2929 48.2929C30.1054 48.4804 30 48.7348 30 49C30 49.2652 30.1054 49.5196 30.2929 49.7071C30.4804 49.8946 30.7348 50 31 50H33C33.2652 50 33.5196 49.8946 33.7071 49.7071C33.8946 49.5196 34 49.2652 34 49C34 48.7348 33.8946 48.4804 33.7071 48.2929C33.5196 48.1054 33.2652 48 33 48Z" fill="#231F20"/>
<path d="M15 48H13C12.7348 48 12.4804 48.1054 12.2929 48.2929C12.1054 48.4804 12 48.7348 12 49C12 49.2652 12.1054 49.5196 12.2929 49.7071C12.4804 49.8946 12.7348 50 13 50H15C15.2652 50 15.5196 49.8946 15.7071 49.7071C15.8946 49.5196 16 49.2652 16 49C16 48.7348 15.8946 48.4804 15.7071 48.2929C15.5196 48.1054 15.2652 48 15 48Z" fill="#231F20"/>
</svg>
