<?xml version="1.0" encoding="utf-8"?>
<!-- Generator: Adobe Illustrator 23.0.3, SVG Export Plug-In . SVG Version: 6.00 Build 0)  -->
<svg version="1.1" id="Layer_1" xmlns="http://www.w3.org/2000/svg" xmlns:xlink="http://www.w3.org/1999/xlink" x="0px" y="0px"
	 viewBox="0 0 148 148" style="enable-background:new 0 0 148 148;" xml:space="preserve">
<style type="text/css">
	.st0{fill:url(#SVGID_1_);}
	.st1{fill:url(#SVGID_2_);}
	.st2{fill:url(#SVGID_3_);}
	.st3{fill:url(#SVGID_4_);}
	.st4{fill:url(#SVGID_5_);}
	.st5{fill:url(#SVGID_6_);}
	.st6{fill:url(#SVGID_7_);}
	.st7{fill:url(#SVGID_8_);}
	.st8{fill:url(#SVGID_9_);}
	.st9{fill:url(#SVGID_10_);}
	.st10{fill:url(#SVGID_11_);}
	.st11{fill:url(#SVGID_12_);}
	.st12{fill:url(#SVGID_13_);}
	.st13{fill:url(#SVGID_14_);}
	.st14{fill:url(#SVGID_15_);}
	.st15{fill:url(#SVGID_16_);}
	.st16{fill:url(#SVGID_17_);}
	.st17{fill:url(#SVGID_18_);}
	.st18{fill:url(#SVGID_19_);}
	.st19{fill:url(#SVGID_20_);}
	.st20{fill:#010101;}
	.st21{fill:url(#SVGID_21_);}
	.st22{fill:url(#SVGID_22_);}
	.st23{fill:url(#SVGID_23_);}
	.st24{fill:url(#SVGID_24_);}
	.st25{fill:url(#SVGID_25_);}
	.st26{fill:url(#SVGID_26_);}
	.st27{fill:#FF462E;}
	.st28{fill:url(#SVGID_27_);}
	.st29{fill:url(#SVGID_28_);}
	.st30{fill:url(#SVGID_29_);}
	.st31{fill:url(#SVGID_30_);}
	.st32{fill:url(#SVGID_31_);}
	.st33{fill:url(#SVGID_32_);}
	.st34{fill:url(#SVGID_33_);}
	.st35{fill:url(#SVGID_34_);}
	.st36{fill:url(#SVGID_35_);}
	.st37{fill:url(#SVGID_36_);}
	.st38{fill:url(#SVGID_37_);}
	.st39{fill:url(#SVGID_38_);}
	.st40{fill:url(#SVGID_39_);}
	.st41{fill:#EFEFEF;}
	.st42{fill:#FFB70D;}
	.st43{fill:#FF3100;}
	.st44{fill:#FFCC01;}
	.st45{fill:#FF3600;}
	.st46{fill:#DF2A00;}
	.st47{fill:#FC3100;}
	.st48{fill:#DF2901;}
	.st49{fill:url(#SVGID_40_);}
	.st50{fill:url(#SVGID_41_);}
	.st51{fill:url(#SVGID_42_);}
	.st52{fill:url(#SVGID_43_);}
	.st53{fill:url(#SVGID_44_);}
	.st54{fill:url(#SVGID_45_);}
	.st55{fill:url(#SVGID_46_);}
	.st56{fill:url(#SVGID_47_);}
	.st57{fill:#F46F24;}
	.st58{fill:#EF2F3E;}
	.st59{fill:#28A54A;}
	.st60{fill:#27B0C3;}
	.st61{fill:#494C55;}
	.st62{fill:#71BD43;}
	.st63{fill:#F05924;}
	.st64{fill:url(#SVGID_48_);}
	.st65{fill:#F24C8A;}
	.st66{fill:#D9D9D9;}
	.st67{fill:#7DD2F0;}
	.st68{fill:#EEE25C;}
	.st69{fill:#464655;}
	.st70{fill:#61B9D9;}
	.st71{fill:#FF6B58;}
	.st72{fill:#FFCE6E;}
	.st73{fill:#F4432C;}
	.st74{fill:#6B6B82;}
	.st75{fill:#B9E578;}
</style>
<g>
	<path d="M134.7,87.6c0-11.5,0-23,0-34.5c0-6.4-0.7-12.6-3.6-18.4C123,18,103.3,8.7,85.3,13.1c-0.8,0.2-1.8,0.5-2.2,1.1
		c-3.9,6.1-8.3,4.7-13.1,1.1c-1-0.8-2.5-1-3.7-1.5c-13.5-5.5-27.5-3.6-41.5-3.4c-3.5,0.1-6.3,2.6-6.6,6.4
		c-1.2,13.3-0.8,19.3,14.5,18.3c4.1-0.3,8.3,0,12.5,0c3.4,0,6.6,0.5,9.9,1.3c3.1,0.7,4.7,2.1,4.5,5.8c-0.4,7-0.2,14-0.1,21
		c0.1,6.9,3.8,13,9.8,13.1c7.6,0.1,7.3,4.2,6.9,9.3c-0.1,1.7-0.1,3.3,0.1,5c0.7,11,9.1,19.2,20.1,19.7c3,0.1,6,0.3,9,0
		c3.1-0.2,4.5,0.6,4.3,4c-0.3,4.8-0.2,9.7,0,14.5c0.3,6.4,3.4,9.2,9.8,9.4c1.3,0,2.7,0,4,0c8.4,0,11.1-2.7,11.1-11
		C134.7,113.9,134.7,100.7,134.7,87.6z M109.6,100.2c0.1,1.2-0.6,1.8-1.8,1.8c-1,0-2,0-3,0c-20.4,1.3-20.7-8.8-20.2-22.4
		c0.1-1.8,0.5-2.8,2.5-2.7c3.7,0.1,7.3,0.1,11,0.1c2.7,0,2.5,1.2,1.6,3.1c-0.9,2.1-2.5,3.5-4,5c-2.1,2-3.8,4.2-1.4,6.8
		c2.6,2.8,4.9,1.1,7.3-0.9c2.5-2.1,4.1-4.8,6.4-8.1C110.7,89,109.3,94.7,109.6,100.2z"/>
	<path class="st45" d="M126.4,73.4c0,8.2-0.1,16.3,0.1,24.5c0.1,3.2-0.7,4.3-4.1,4.2c-3-0.1-4.5-0.5-4.3-4c0.3-4.1,0.4-8.3-0.5-12.4
		c-1.8-9.2-8.6-16-18-16.7c-8.3-0.6-16.6-0.3-24.9-0.5c-5.8-0.1-6.3-0.9-6.7-6.7c-0.8-12.7-0.9-24.9,11.8-32.7
		c3.7-2.3,5.1-7.7,10.3-7.9c8.8-0.4,17.3,0.3,24.6,6c7.2,5.6,11.2,13.1,11.5,22.2C126.5,57.4,126.3,65.4,126.4,73.4
		C126.3,73.4,126.4,73.4,126.4,73.4z"/>
	<path class="st42" d="M71.1,25.6c-2.7,4.8-6,6.2-11.6,3.6c-8.9-4.1-18.7-2-28.1-2.3c-4.9-0.2-6.5-2.2-5.1-7
		c0.3-0.9,0.6-1.5,1.6-1.5C42.6,18.7,57.9,16.2,71.1,25.6z"/>
	<path class="st44" d="M118.2,120c0-1.7,0-3.3,0-5c0-4.7,2-6.1,6.7-4.9c1.7,0.4,1.5,1.5,1.5,2.6c0,4.8-0.1,9.6,0.1,14.4
		c0.1,3.4-2.1,2.7-4,2.7c-2,0-4.6,0.9-4.3-2.8C118.3,124.7,118.2,122.4,118.2,120z"/>
</g>
</svg>
