<svg xmlns="http://www.w3.org/2000/svg" xml:space="preserve" width="6.72in" height="6.72in" style="shape-rendering:geometricPrecision; text-rendering:geometricPrecision; image-rendering:optimizeQuality; fill-rule:evenodd; clip-rule:evenodd" viewBox="0 0 6.72 6.72" xmlns:xlink="http://www.w3.org/1999/xlink">
<defs>
<style type="text/css">
   
    .fil6 {fill:none}
    .fil1 {fill:url(#id0);fill-rule:nonzero}
    .fil3 {fill:url(#id1);fill-rule:nonzero}
    .fil5 {fill:url(#id2);fill-rule:nonzero}
    .fil0 {fill:url(#id3);fill-rule:nonzero}
    .fil2 {fill:url(#id4);fill-rule:nonzero}
    .fil4 {fill:url(#id5);fill-rule:nonzero}
   
  </style>
<linearGradient id="id0" gradientUnits="userSpaceOnUse" x1="3.81779" y1="3.91051" x2="5.75763" y2="3.91051">
<stop offset="0" style="stop-color: rgb(255, 255, 255);" id="id_108"></stop>
<stop offset="1" style="stop-color: rgb(226, 238, 240);" id="id_109"></stop>
</linearGradient>
<linearGradient id="id1" gradientUnits="userSpaceOnUse" xlink:href="#id0" x1="2.25748" y1="4.82757" x2="3.81847" y2="4.82757">
</linearGradient>
<linearGradient id="id2" gradientUnits="userSpaceOnUse" xlink:href="#id0" x1="0.8" y1="2.03664" x2="1.6501" y2="2.03664">
</linearGradient>
<linearGradient id="id3" gradientUnits="userSpaceOnUse" xlink:href="#id0" x1="4.49961" y1="3.91053" x2="5.12271" y2="3.91053">
</linearGradient>
<linearGradient id="id4" gradientUnits="userSpaceOnUse" xlink:href="#id0" x1="2.8112" y1="4.82758" x2="3.30168" y2="4.82758">
</linearGradient>
<linearGradient id="id5" gradientUnits="userSpaceOnUse" xlink:href="#id0" x1="1.48944" y1="2.36468" x2="5.96055" y2="2.36468">
</linearGradient>
</defs>
<g id="Layer_x0020_1">
<metadata id="CorelCorpID_0Corel-Layer"></metadata>
<path class="fil0" d="M4.78025 4.4924l0 -0.115539c-0.0578819,-0.00723622 -0.104799,-0.0201732 -0.140976,-0.0388071 -0.0361732,-0.0186378 -0.0675236,-0.0488937 -0.0938346,-0.0903307 -0.026311,-0.0416535 -0.0416575,-0.0922992 -0.0458228,-0.152154l0.116201 -0.0219252c0.00898819,0.0620472 0.0247756,0.10765 0.0475748,0.136807 0.0324488,0.0412205 0.0714724,0.0640197 0.116858,0.068626l0 -0.367894c-0.0475748,-0.00898819 -0.0960276,-0.0274055 -0.145799,-0.055248 -0.0368307,-0.0206102 -0.0651142,-0.0491102 -0.0850669,-0.0855039 -0.0199488,-0.0363976 -0.029815,-0.0776142 -0.029815,-0.123874 0,-0.0822165 0.0291575,-0.148866 0.0872598,-0.199732 0.0390236,-0.0344213 0.0969055,-0.055248 0.173421,-0.0629213l0 -0.055252 0.068185 0 0 0.055252c0.0670866,0.00635827 0.120583,0.0260906 0.159827,0.0589764 0.0506457,0.041874 0.0809016,0.0995354 0.0912087,0.172764l-0.119488 0.0179764c-0.00679921,-0.0453819 -0.0210472,-0.0802441 -0.0427559,-0.104358 -0.0214843,-0.0241181 -0.0510827,-0.040122 -0.0887913,-0.0477953l0 0.333252c0.0580984,0.014689 0.096685,0.0260866 0.115539,0.0342008 0.0359567,0.0157835 0.0653346,0.0350787 0.0879173,0.0576614 0.0228031,0.0227992 0.0403425,0.0497677 0.0524016,0.0809016 0.0122756,0.0313504 0.0184173,0.0651142 0.0184173,0.101508 0,0.0802441 -0.0256535,0.146894 -0.0765197,0.20039 -0.0508622,0.0537165 -0.116854,0.0822165 -0.197756,0.0861614l0 0.116858 -0.068185 0zm0 -1.01225c-0.0449449,0.00679528 -0.0804646,0.0247717 -0.106335,0.0539331 -0.0258701,0.0291575 -0.0388071,0.0635787 -0.0388071,0.103484 0,0.0392441 0.0109646,0.0723504 0.0331063,0.098878 0.0221457,0.0265276 0.0594173,0.0477953 0.112035,0.0635787l0 -0.319874zm0.068185 0.798925c0.0449449,-0.00548031 0.0819961,-0.0249961 0.111374,-0.0583189 0.0293819,-0.0333268 0.0440709,-0.0747638 0.0440709,-0.124094 0,-0.041874 -0.0105236,-0.0756378 -0.0311339,-0.101071 -0.0208268,-0.0254331 -0.0622638,-0.0482323 -0.124311,-0.0684016l0 0.351886z" id="id_101"></path>
<path class="fil1" d="M4.78771 2.94059c0.267827,0 0.510307,0.108563 0.685831,0.284087 0.175524,0.17552 0.284091,0.418004 0.284091,0.685831 0,0.267827 -0.108567,0.510311 -0.284091,0.685831 -0.17552,0.175524 -0.418004,0.284091 -0.685831,0.284091 -0.267827,0 -0.510311,-0.108567 -0.685831,-0.284091 -0.175524,-0.17552 -0.284091,-0.418004 -0.284091,-0.685831 0,-0.535669 0.434252,-0.969917 0.969921,-0.969917zm0.572705 0.397213c-0.146559,-0.146559 -0.349047,-0.237213 -0.572705,-0.237213 -0.447303,0 -0.809921,0.362614 -0.809921,0.809917 0,0.223657 0.0906535,0.426146 0.237217,0.572705 0.146559,0.146563 0.349047,0.237217 0.572705,0.237217 0.223657,0 0.426146,-0.0906535 0.572705,-0.237217 0.146563,-0.146559 0.237217,-0.349047 0.237217,-0.572705 0,-0.223657 -0.0906535,-0.426146 -0.237217,-0.572705z" id="id_102"></path>
<path class="fil2" d="M3.03211 5.28561l0 -0.0909488c-0.045563,-0.00569685 -0.0824921,-0.015878 -0.110969,-0.0305472 -0.0284764,-0.0146693 -0.0531535,-0.0384843 -0.0738661,-0.0711024 -0.0207087,-0.0327913 -0.0327874,-0.0726575 -0.0360669,-0.119772l0.0914646 -0.0172559c0.00707874,0.0488386 0.0195039,0.0847362 0.0374528,0.107689 0.0255394,0.0324449 0.0562598,0.0503937 0.0919843,0.0540157l0 -0.289587c-0.0374488,-0.0070748 -0.0755906,-0.0215748 -0.114768,-0.0434921 -0.0289921,-0.0162205 -0.0512559,-0.0386575 -0.0669606,-0.0673071 -0.0157047,-0.0286457 -0.0234685,-0.0610906 -0.0234685,-0.0975039 0,-0.0647205 0.0229528,-0.117185 0.068685,-0.15722 0.0307205,-0.0270984 0.0762795,-0.0434921 0.136512,-0.0495315l0 -0.0434921 0.0536732 0 0 0.0434921c0.0528071,0.00500394 0.0949173,0.0205354 0.125811,0.0464213 0.0398661,0.0329646 0.0636811,0.0783543 0.0717913,0.135996l-0.0940551 0.0141496c-0.00535039,-0.0357244 -0.0165669,-0.0631614 -0.0336535,-0.0821457 -0.0169134,-0.0189843 -0.0402126,-0.0315827 -0.0698937,-0.037622l0 0.262319c0.0457323,0.011563 0.0761063,0.0205394 0.0909488,0.0269252 0.0283031,0.0124252 0.0514291,0.0276102 0.0692047,0.0453858 0.0179488,0.0179488 0.0317559,0.0391772 0.041248,0.0636811 0.00966142,0.0246811 0.0144961,0.0512598 0.0144961,0.0799055 0,0.0631654 -0.0201929,0.11563 -0.0602323,0.15774 -0.0400394,0.0422795 -0.0919843,0.0647165 -0.155665,0.0678228l0 0.0919843 -0.0536732 0zm0 -0.796799c-0.035378,0.00534646 -0.0633386,0.0195 -0.0837008,0.0424528 -0.0203661,0.0229528 -0.0305472,0.0500472 -0.0305472,0.0814567 0,0.0308937 0.00862992,0.0569528 0.0260591,0.0778346 0.0174331,0.0208819 0.0467717,0.037622 0.088189,0.0500472l0 -0.251791zm0.0536732 0.628878c0.035378,-0.00431102 0.0645433,-0.0196732 0.0876693,-0.0459055 0.023126,-0.0262323 0.034689,-0.0588504 0.034689,-0.0976811 0,-0.0329606 -0.00828346,-0.0595394 -0.0245079,-0.0795591 -0.0163937,-0.0200197 -0.0490118,-0.0379646 -0.0978504,-0.0538425l0 0.276988z" id="id_103"></path>
<path class="fil3" d="M3.03798 4.04708c0.215516,0 0.410646,0.0873661 0.551886,0.228606 0.14124,0.141248 0.228606,0.33637 0.228606,0.55189 0,0.21552 -0.0873661,0.410642 -0.228606,0.55189 -0.14124,0.14124 -0.336366,0.228606 -0.551886,0.228606 -0.21552,0 -0.41065,-0.0873661 -0.55189,-0.228606 -0.14124,-0.14124 -0.228606,-0.33637 -0.228606,-0.55189 0,-0.21552 0.0873661,-0.410642 0.228606,-0.55189 0.141248,-0.14124 0.33637,-0.228606 0.55189,-0.228606zm0.43876 0.341732c-0.11228,-0.11228 -0.267413,-0.181732 -0.43876,-0.181732 -0.17135,0 -0.32648,0.0694488 -0.438764,0.181732 -0.11228,0.112283 -0.181732,0.267413 -0.181732,0.438764 0,0.17135 0.0694528,0.326484 0.181732,0.438764 0.11228,0.11228 0.267413,0.181732 0.438764,0.181732 0.17135,0 0.32648,-0.0694528 0.43876,-0.181732 0.112283,-0.112283 0.181732,-0.267413 0.181732,-0.438764 0,-0.17135 -0.0694528,-0.32648 -0.181732,-0.438764z" id="id_104"></path>
<path class="fil4" d="M1.4901 2.68786l0 -1.25076c0,-0.0430984 0.0340866,-0.0782283 0.0767677,-0.0799291 0.223886,-0.0286614 0.444079,-0.0603622 0.648819,-0.0898346 1.43993,-0.207291 2.11122,-0.303933 3.59845,0.836906l-0.048437 0.063437 0.0486929 -0.0634764c0.0137756,0.0105669 0.0231575,0.0247402 0.0278425,0.0401811 0.118311,0.322287 0.0954764,0.475205 -0.0413976,0.525748 -0.134031,0.0494882 -0.370417,-0.0478898 -0.691248,-0.180051 -0.590594,-0.243291 -1.48846,-0.613118 -2.38915,-0.368575l0.993524 0.49676 0.000149606 -0.00030315c0.0226102,0.0113031 0.0375197,0.031874 0.0424449,0.0548071 0.0234094,0.0847795 0.257449,1.09317 -2.21646,0.090811l0.03 -0.074063 -0.0300433 0.0741457c-0.0316417,-0.0128189 -0.0506181,-0.0435866 -0.0499567,-0.0758071zm0.16 -1.18072l0 1.12833c1.945,0.778823 1.979,0.248957 1.95843,0.108213l-1.12824 -0.564118c-0.0205591,-0.00804331 -0.0377126,-0.0245039 -0.0459409,-0.0468465 -0.0152717,-0.0414567 0.00595276,-0.0874528 0.0474094,-0.102724l0.0276575 0.0750669 -0.0275 -0.075c1.01863,-0.375283 2.03496,0.0433858 2.6883,0.31252 0.287524,0.118441 0.499374,0.205709 0.575626,0.177555 0.0365551,-0.0134961 0.0261142,-0.100791 -0.0471654,-0.303157 -1.42104,-1.08492 -2.07179,-0.991425 -3.46048,-0.791512 -0.178531,0.0256969 -0.36935,0.0531693 -0.588091,0.0816693z" id="id_105"></path>
<path class="fil5" d="M1.5701 2.96135l-0.690098 0c-0.0441811,0 -0.08,-0.0358189 -0.08,-0.08l0 -1.68943c0,-0.0441811 0.0358189,-0.08 0.08,-0.08l0.690098 0c0.0441811,0 0.08,0.0358189 0.08,0.08l0 1.68943c0,0.0441811 -0.0358189,0.08 -0.08,0.08zm-0.610098 -0.16l0.530098 0 0 -1.52943 -0.530098 0 0 1.52943z" id="id_106"></path>
</g>
<rect class="fil6" width="6.72" height="6.72" id="id_107"></rect>
</svg>